<svg id="visual" viewBox="0 0 900 600" width="900" height="600" xmlns="http://www.w3.org/2000/svg" xmlns:xlink="http://www.w3.org/1999/xlink" version="1.1"><g stroke-width="1" stroke-linejoin="bevel"><path d="M415 378L421 211L269 364Z" fill="#267095" stroke="#267095"></path><path d="M421 211L208 231L269 364Z" fill="#123146" stroke="#123146"></path><path d="M421 211L212 0L208 231Z" fill="#297ea6" stroke="#297ea6"></path><path d="M441 600L637 419L415 378Z" fill="#081b29" stroke="#081b29"></path><path d="M415 378L653 197L421 211Z" fill="#081b29" stroke="#081b29"></path><path d="M421 211L653 197L410 0Z" fill="#1f5675" stroke="#1f5675"></path><path d="M637 419L653 197L415 378Z" fill="#1f5675" stroke="#1f5675"></path><path d="M247 600L441 600L415 378Z" fill="#123146" stroke="#123146"></path><path d="M410 0L212 0L421 211Z" fill="#00101c" stroke="#00101c"></path><path d="M0 365L247 600L269 364Z" fill="#267095" stroke="#267095"></path><path d="M269 364L247 600L415 378Z" fill="#0d2637" stroke="#0d2637"></path><path d="M208 231L0 365L269 364Z" fill="#00101c" stroke="#00101c"></path><path d="M0 168L0 365L208 231Z" fill="#173d55" stroke="#173d55"></path><path d="M212 0L0 168L208 231Z" fill="#081b29" stroke="#081b29"></path><path d="M441 600L672 600L637 419Z" fill="#267095" stroke="#267095"></path><path d="M637 419L900 404L653 197Z" fill="#1f5675" stroke="#1f5675"></path><path d="M653 197L688 0L410 0Z" fill="#00101c" stroke="#00101c"></path><path d="M900 168L688 0L653 197Z" fill="#00101c" stroke="#00101c"></path><path d="M212 0L0 0L0 168Z" fill="#123146" stroke="#123146"></path><path d="M0 365L0 600L247 600Z" fill="#267095" stroke="#267095"></path><path d="M672 600L900 404L637 419Z" fill="#1b4965" stroke="#1b4965"></path><path d="M900 404L900 168L653 197Z" fill="#0d2637" stroke="#0d2637"></path><path d="M900 168L900 0L688 0Z" fill="#267095" stroke="#267095"></path><path d="M672 600L900 600L900 404Z" fill="#297ea6" stroke="#297ea6"></path></g></svg>